<?xml version="1.0" encoding="iso-8859-1"?>
<!-- Generator: Adobe Illustrator 19.0.0, SVG Export Plug-In . SVG Version: 6.00 Build 0)  -->
<svg version="1.1" id="Layer_1" xmlns="http://www.w3.org/2000/svg" xmlns:xlink="http://www.w3.org/1999/xlink" x="0px" y="0px"
	 viewBox="0 0 512 512" style="enable-background:new 0 0 512 512;" xml:space="preserve">
<g transform="translate(1 1)">
	<path style="fill:#FFDD09;" d="M476.867,255c0,136.533-98.987,247.467-221.867,247.467S33.133,391.533,33.133,255
		S132.12,7.533,255,7.533S476.867,118.467,476.867,255"/>
	<path style="fill:#54C9FD;" d="M10.947,295.107c0.853,0,0.853-0.853,1.707-0.853c11.093-11.093,20.48-12.8,29.867-29.867
		c9.387-16.213-1.707-16.213,0-44.373c1.707-27.307-1.707-14.507,0-44.373c0.853-17.92-2.56-22.187-10.24-28.16L7.533,220.867
		L10.947,295.107z"/>
	<path style="fill:#FFFFFF;" d="M33.133,255C33.133,118.467,132.12,7.533,255,7.533C118.467,7.533,7.533,118.467,7.533,255
		S118.467,502.467,255,502.467C132.12,502.467,33.133,391.533,33.133,255"/>
	<path style="fill:#FD9808;" d="M255,7.533c122.88,0,221.867,110.933,221.867,247.467S377.88,502.467,255,502.467
		c136.533,0,247.467-110.933,247.467-247.467S391.533,7.533,255,7.533"/>
	<g>
		<path style="fill:#54C9FD;" d="M255,7.533c-34.133,0-67.413,6.827-97.28,19.627c-1.707,7.68-8.533,22.187-7.68,26.453
			c0.853,0,63.147-63.147,55.467-20.48c-5.12,27.307-55.467,27.307-53.76,55.467c52.907,20.48,71.68-39.253,116.907-39.253
			c15.36,0,53.76-23.893,61.44-18.773c29.867,19.627-6.827,89.6-29.867,66.56c-22.187-22.187-52.907,7.68-52.053,41.813
			c11.093,0.853,16.213-32.427,26.453-21.333c11.093,11.947,6.827,36.693-8.533,41.813c-15.36,5.973-77.653-41.813-62.293-5.973
			c17.067,40.107-50.347,70.827,17.067,54.613c31.573-7.68,21.333,16.213,35.84,28.16c17.92,13.653,10.24-18.773,23.04-13.653
			c18.773,7.68-3.413,26.453,26.453,12.8c34.987-16.213,21.333,8.533,32.427,24.747c20.48,29.013,69.973,58.027,95.573,17.92
			c5.973-9.387,2.56-83.627,40.107-34.133C498.2,275.48,490.52,206.36,493.08,188.44C464.067,84.333,368.493,7.533,255,7.533"/>
		<path style="fill:#54C9FD;" d="M127,306.2L100.547,319l34.987-11.947L127,306.2z"/>
		<path style="fill:#54C9FD;" d="M97.133,319.853L98.84,319l1.707-0.853L97.133,319.853z"/>
		<path style="fill:#54C9FD;" d="M288.28,366.787l-45.227-34.133l-30.72,0.853l-31.573-10.24L156.013,306.2L99.693,319L75.8,330.947
			l-25.6,34.987l9.387,40.96c2.56,3.413,5.12,6.827,7.68,10.24l47.787,22.187l32.427,4.267l19.627,39.253l0.853,4.267
			c26.453,9.387,56.32,15.36,87.04,15.36c21.333,0,41.813-2.56,61.44-7.68l6.827-38.4l29.867-23.893l11.947-38.4h-61.44
			L288.28,366.787z"/>
	</g>
	<path style="fill:#DB4D6C;" d="M152.6,195.267c0,18.773-15.36,34.133-34.133,34.133s-34.133-15.36-34.133-34.133
		s15.36-34.133,34.133-34.133S152.6,176.493,152.6,195.267"/>
	<path style="fill:#1CD759;" d="M417.133,161.133c0,18.773-15.36,34.133-34.133,34.133c-18.773,0-34.133-15.36-34.133-34.133
		S364.227,127,383,127C401.773,127,417.133,142.36,417.133,161.133"/>
	<path style="fill:#FD9808;" d="M263.533,417.133c0,18.773-15.36,34.133-34.133,34.133s-34.133-15.36-34.133-34.133
		S210.627,383,229.4,383S263.533,398.36,263.533,417.133"/>
	<path d="M255,511C114.2,511-1,395.8-1,255S114.2-1,255-1s256,115.2,256,256S395.8,511,255,511z M255,16.067
		C123.587,16.067,16.067,123.587,16.067,255S123.587,493.933,255,493.933S493.933,386.413,493.933,255S386.413,16.067,255,16.067z"
		/>
	<path d="M400.92,306.2c-27.307,0-54.613-22.187-68.267-42.667c-4.267-6.827-5.973-13.653-6.827-19.627
		c0-2.56-0.853-5.12-1.707-6.827c-0.853,0-5.12,0-13.653,4.267c-11.947,5.12-17.92,7.68-23.893,4.267
		c-5.12-2.56-5.12-8.533-5.973-11.093c0-1.707,0-3.413-0.853-3.413c0,0.853,0,0.853-0.853,1.707
		c-1.707,5.12-3.413,11.947-11.093,14.507c-7.68,2.56-14.507-2.56-16.213-4.267c-7.68-5.973-10.24-12.8-11.947-18.773
		c-3.413-8.533-3.413-10.24-17.067-7.68c-23.04,5.973-34.133,6.827-39.253-0.853c-5.12-6.827-0.853-13.653,4.267-21.333
		c5.973-10.24,13.653-23.04,7.68-37.547c-1.707-4.267-5.973-14.507,0.853-22.187c7.68-7.68,21.333-1.707,40.107,6.827
		c1.707,0.853,2.56,0.853,4.267,1.707c-0.853-1.707-1.707-2.56-1.707-4.267c-0.853-23.893,11.947-46.933,30.72-55.467
		c12.8-5.973,25.6-2.56,35.84,6.827c2.56,2.56,4.267,2.56,5.973,1.707c7.68-2.56,17.92-17.067,19.627-33.28
		c0.853-5.973,0.853-15.36-5.973-21.333c-4.267,0.853-15.36,5.12-22.187,8.533c-13.653,5.973-25.6,11.093-34.987,11.093
		c-17.067,0-29.013,9.387-43.52,20.48c-19.627,15.36-41.813,32.427-76.8,18.773c-3.413-0.853-5.12-4.267-5.12-7.68
		c-1.707-19.627,16.213-29.013,29.867-36.693c11.093-5.973,22.187-11.093,23.893-20.48c0-1.707,0.853-3.413,0.853-4.267
		c-4.267,1.707-14.507,7.68-37.547,29.013c-5.12,4.267-6.827,6.827-11.093,5.973c-4.267-0.853-6.827-4.267-6.827-7.68
		s1.707-8.533,4.267-15.36c1.707-4.267,3.413-9.387,4.267-12.8c0.853-2.56,2.56-5.12,5.12-6.827C186.733,5.827,220.013-1,255-1
		c114.347,0,215.893,76.8,246.613,187.733c0,0.853,0,2.56,0,3.413c-0.853,4.267-0.853,12.8-0.853,20.48
		c0,28.16-0.853,45.227-12.8,49.493c-10.24,3.413-17.92-6.827-20.48-11.093c-10.24-13.653-14.507-13.653-14.507-13.653
		c-3.413,2.56-5.973,20.48-6.827,28.16c-1.707,10.24-2.56,15.36-4.267,18.773C431.64,297.667,417.133,306.2,400.92,306.2
		L400.92,306.2z M324.12,220.013c3.413,0,5.973,0.853,8.533,1.707c7.68,4.267,8.533,11.947,10.24,18.773
		c0.853,4.267,1.707,9.387,4.267,12.8c11.093,17.067,34.133,34.987,54.613,34.987l0,0c11.093,0,18.773-5.12,25.6-15.36
		c0.853-1.707,1.707-7.68,2.56-11.947c2.56-17.92,5.12-38.4,19.627-41.813c12.8-3.413,24.747,9.387,32.427,19.627
		c0.853,0.853,0.853,0.853,1.707,1.707c1.707-7.68,1.707-21.333,1.707-29.867c0-8.533,0-16.213,0.853-21.333
		c-20.48-71.68-73.387-128.853-139.947-155.307c2.56,6.827,4.267,16.213,2.56,27.307c-2.56,18.773-14.507,41.813-31.573,46.933
		c-8.533,2.56-17.067,0.853-23.893-5.973c-5.12-5.12-11.093-5.973-17.067-3.413c-3.413,1.707-6.827,4.267-10.24,7.68
		c0.853,0,1.707,0,1.707,0c3.413,0,7.68,0,11.947,5.12c7.68,8.533,10.24,20.48,7.68,32.427c-2.56,11.093-9.387,19.627-19.627,23.04
		c-8.533,3.413-20.48-1.707-39.253-10.24c-5.12-2.56-12.8-5.973-17.92-7.68c0,0,0,0,0,0.853c9.387,22.187-2.56,41.813-9.387,52.907
		l0,0c3.413-0.853,8.533-1.707,16.213-3.413c25.6-5.973,32.427,5.973,36.693,17.92c1.707,4.267,3.413,8.533,6.827,11.093l0,0
		c0-0.853,0-0.853,0-1.707c1.707-5.12,3.413-11.093,9.387-13.653c2.56-0.853,5.973-1.707,11.093,0
		c9.387,3.413,12.8,10.24,13.653,15.36c1.707-0.853,3.413-1.707,5.973-2.56C312.173,222.573,319,220.013,324.12,220.013z
		 M249.88,146.627c5.973,2.56,11.947,4.267,13.653,4.267c5.973-1.707,7.68-8.533,8.533-11.093c0.853-5.12,0.853-10.24-1.707-14.507
		c-0.853,1.707-1.707,2.56-2.56,4.267C264.387,136.387,259.267,145.773,249.88,146.627z M161.133,82.627
		c22.187,5.973,37.547-5.12,53.76-17.92c14.507-11.093,30.72-23.893,52.907-23.893l0,0c5.12,0,17.92-5.12,28.16-9.387
		c6.827-2.56,12.8-5.12,17.067-6.827c-32.427-8.533-67.413-9.387-100.693-4.267c0.853,4.267,1.707,8.533,0,15.36
		c-3.413,17.067-18.773,25.6-32.427,32.427C170.52,73.24,163.693,77.507,161.133,82.627z"/>
	<path d="M100.547,327.533c-3.413,0-6.827-1.707-7.68-5.12c-1.707-4.267,0-8.533,4.267-11.093l26.453-12.8
		c1.707-0.853,3.413-0.853,5.12-0.853l8.533,0.853c4.267,0.853,6.827,3.413,7.68,7.68s-1.707,7.68-5.973,8.533L103.96,326.68
		C102.253,327.533,101.4,327.533,100.547,327.533z"/>
	<path d="M97.133,328.387c-3.413,0-6.827-2.56-8.533-5.973c-0.853-4.267,0.853-8.533,5.12-10.24l3.413-0.853
		c4.267-1.707,8.533,0.853,10.24,5.12c1.707,4.267,0,8.533-4.267,11.093l-1.707,0.853c-0.853,0-0.853,0.853-1.707,0.853
		l-1.707,0.853C98.84,328.387,97.987,328.387,97.133,328.387z"/>
	<path d="M255,511c-30.72,0-61.44-5.973-90.453-16.213c-2.56-0.853-5.12-3.413-5.12-6.827v-2.56l-16.213-34.133l-28.16-3.413
		c-0.853,0-1.707,0-2.56-0.853l-47.787-22.187c-0.853-0.853-1.707-0.853-2.56-2.56c-2.56-3.413-5.973-6.827-8.533-10.24
		c-0.853-0.853-1.707-1.707-1.707-3.413l-10.24-40.96c-0.853-2.56,0-5.12,1.707-6.827l25.6-34.987
		c0.853-0.853,1.707-1.707,3.413-2.56l23.04-11.093c0.853,0,0.853-0.853,1.707-0.853l56.32-12.8c2.56-0.853,5.12,0,6.827,1.707
		l23.893,16.213l29.013,9.387l29.013-0.853c1.707,0,4.267,0.853,5.12,1.707l45.227,34.133c0.853,0.853,1.707,1.707,2.56,2.56
		l12.8,22.187h56.32c2.56,0,5.12,1.707,6.827,3.413c1.707,2.56,1.707,5.12,0.853,7.68L360.813,434.2
		c-0.853,1.707-1.707,2.56-2.56,4.267l-27.307,22.187l-5.973,35.84c-0.853,3.413-3.413,5.973-5.973,6.827
		C297.667,508.44,276.333,511,255,511z M174.787,480.28c42.667,15.36,89.6,17.92,133.973,7.68l5.973-33.28
		c0-1.707,1.707-4.267,3.413-5.12l27.307-22.187l7.68-24.747h-50.347c-3.413,0-5.973-1.707-7.68-4.267l-13.653-25.6l-41.813-31.573
		l-27.307,0.853c-0.853,0-1.707,0-2.56,0L178.2,331.8c-0.853,0-1.707-0.853-2.56-0.853l-21.333-15.36l-52.053,11.947l-20.48,10.24
		L59.587,367.64l7.68,34.987c1.707,2.56,3.413,4.267,5.12,6.827l45.227,21.333l30.72,4.267c2.56,0,5.12,2.56,6.827,5.12
		l19.627,39.253C174.787,479.427,174.787,479.427,174.787,480.28z"/>
	<path d="M10.947,303.64c-2.56,0-5.12-0.853-6.827-3.413c-2.56-3.413-2.56-8.533,0.853-11.947l0.853-0.853
		c4.267-4.267,8.533-7.68,11.947-10.24c5.973-4.267,11.093-8.533,16.213-17.92c3.413-5.973,3.413-7.68,1.707-13.653
		c-1.707-5.973-3.413-13.653-2.56-27.307c0.853-12.8,0.853-16.213,0-19.627c-0.853-4.267-0.853-8.533,0-24.747
		c0.853-14.507-1.707-16.213-6.827-20.48c-3.413-2.56-4.267-8.533-1.707-11.947s8.533-4.267,11.947-1.707
		c10.24,7.68,14.507,14.507,13.653,34.987c-0.853,14.507-0.853,17.92,0,21.333c0.853,4.267,0.853,8.533,0,23.04
		c-0.853,11.093,0.853,17.067,1.707,22.187c2.56,8.533,3.413,14.507-3.413,25.6c-6.827,12.8-13.653,17.92-20.48,23.04
		c-3.413,2.56-6.827,5.12-10.24,8.533c-0.853,0.853-0.853,0.853-1.707,1.707C15.213,302.787,12.653,303.64,10.947,303.64z"/>
	<path d="M260.12,396.653l-13.653-10.24c42.667-54.613,81.92-119.467,114.347-194.56l15.36,6.827
		C343.747,274.627,304.493,341.187,260.12,396.653z"/>
	<path d="M405.187,129.56l-16.213-5.973C402.627,88.6,408.6,65.56,408.6,64.707l17.067,5.12
		C424.813,70.68,418.84,93.72,405.187,129.56z"/>
	<path d="M468.333,383c-128,0-250.027-87.04-330.24-159.573l11.093-12.8c78.507,70.827,196.267,155.307,319.147,155.307V383z"/>
	<path d="M89.453,175.64c-29.013-29.867-45.227-51.2-46.08-52.053l13.653-10.24c0,0,17.067,21.333,45.227,50.347L89.453,175.64z"/>
	<path d="M118.467,237.933c-23.893,0-42.667-18.773-42.667-42.667S94.573,152.6,118.467,152.6s42.667,18.773,42.667,42.667
		S142.36,237.933,118.467,237.933z M118.467,169.667c-14.507,0-25.6,11.093-25.6,25.6s11.093,25.6,25.6,25.6s25.6-11.093,25.6-25.6
		S132.973,169.667,118.467,169.667z"/>
	<path d="M383,203.8c-23.893,0-42.667-18.773-42.667-42.667s18.773-42.667,42.667-42.667c23.893,0,42.667,18.773,42.667,42.667
		S406.893,203.8,383,203.8z M383,135.533c-14.507,0-25.6,11.093-25.6,25.6c0,14.507,11.093,25.6,25.6,25.6
		c14.507,0,25.6-11.093,25.6-25.6C408.6,146.627,397.507,135.533,383,135.533z"/>
	<path d="M229.4,459.8c-23.893,0-42.667-18.773-42.667-42.667c0-23.893,18.773-42.667,42.667-42.667s42.667,18.773,42.667,42.667
		C272.067,441.027,253.293,459.8,229.4,459.8z M229.4,391.533c-14.507,0-25.6,11.093-25.6,25.6c0,14.507,11.093,25.6,25.6,25.6
		c14.507,0,25.6-11.093,25.6-25.6C255,402.627,243.907,391.533,229.4,391.533z"/>
	<path d="M166.253,492.227l-10.24-13.653c16.213-12.8,31.573-26.453,46.933-41.813l11.947,11.947
		C199.533,464.92,182.467,479.427,166.253,492.227z"/>
</g>
<g>
</g>
<g>
</g>
<g>
</g>
<g>
</g>
<g>
</g>
<g>
</g>
<g>
</g>
<g>
</g>
<g>
</g>
<g>
</g>
<g>
</g>
<g>
</g>
<g>
</g>
<g>
</g>
<g>
</g>
</svg>
