<svg id="Layer_1" data-name="Layer 1" xmlns="http://www.w3.org/2000/svg" viewBox="0 0 205 149.97"><defs><style>.cls-1{fill:#54acd5;}.cls-1,.cls-10,.cls-11,.cls-12,.cls-2,.cls-3,.cls-4,.cls-5,.cls-6,.cls-7,.cls-8,.cls-9{fill-rule:evenodd;}.cls-11,.cls-2{fill:#fff;}.cls-3{fill:#003c6a;}.cls-4{fill:#005785;}.cls-5{opacity:0.24;}.cls-6{fill:#5bbae0;}.cls-7{fill:#eef7f8;}.cls-8{fill:#c1e2f1;}.cls-9{fill:#467291;}.cls-10{fill:#f1f8f8;}.cls-11{opacity:0.7;}.cls-12{fill:#ff3700;}.cls-13{fill:#ff6d46;}</style></defs><path class="cls-1" d="M61.09,52.75c5.51,2.29,9.1,5.09,13.56,9.73l-6.13,4.65c-1.63-1.69-13.41-1.07-11.66-2.43,3.48-2.72,1.3-5.1-1.86-6.41-5.94-3.47-7.79,12.32-22.89,7.77C22,63,17.51,53.59,20.6,44.74s13.73-13.42,23.78-10.2a13.2,13.2,0,0,1,9.39,12c.45,5.44,1,3.54,7.32,6.17" transform="translate(-2.5 -30.11)"/><path class="cls-2" d="M41.29,36.43a6.84,6.84,0,0,1,6.84,6.84c0,6.88-13.63,7.23-13.63-1,0-3.78,3-5.85,6.79-5.85" transform="translate(-2.5 -30.11)"/><path class="cls-1" d="M44.75,121.39c3.4-4.32-11.14-21.33-19.36-34S9.72,76.21,5.61,79.18s-5.13,12.44,3.09,22,32.65,24.57,36.05,20.24" transform="translate(-2.5 -30.11)"/><path class="cls-2" d="M10.23,87.63a3,3,0,0,0,1-3.71,2.19,2.19,0,0,0-3.07-1.38,3,3,0,0,0-1,3.72,2.19,2.19,0,0,0,3.07,1.37M26.48,108.8c2.11-1-4.74-2.16-11.43-13.71-2.38-4.12-3-6.39-5.05-5.87-.9.23-3,1.47.47,7.18S24.15,109.91,26.48,108.8Z" transform="translate(-2.5 -30.11)"/><path class="cls-3" d="M36.91,88.61h7.51l.17-1a54.37,54.37,0,0,1,16.14-30,59.87,59.87,0,0,1,82,0,54.37,54.37,0,0,1,16.14,30l.16,1h7.52l-.21-1.33a61.75,61.75,0,0,0-18.47-35,67.26,67.26,0,0,0-92.32,0,61.69,61.69,0,0,0-18.47,35Z" transform="translate(-2.5 -30.11)"/><path class="cls-1" d="M157.56,118.6c-2.22-5,16.08-17.9,27.17-28.1s18-7,21.21-3.09,1.89,13.33-8.44,20.52-37.72,15.7-39.94,10.67" transform="translate(-2.5 -30.11)"/><path class="cls-2" d="M178.15,100.33c-.85-2.12,4.28-4.18,9.28-9.41S196.12,85,197,87.15s-1.54,5.88-6.44,9.14-11.53,6.17-12.37,4" transform="translate(-2.5 -30.11)"/><path class="cls-3" d="M160.62,78a21.46,21.46,0,0,0-6.84,1.12v38.65a21.46,21.46,0,0,0,6.84,1.12,20.45,20.45,0,1,0,0-40.89M42.87,78a21.52,21.52,0,0,1,6.85,1.12v38.65a21.52,21.52,0,0,1-6.85,1.12,20.72,20.72,0,0,1-21-20.45C21.91,87.2,31.3,78,42.87,78Z" transform="translate(-2.5 -30.11)"/><path class="cls-4" d="M160.68,92.2c0,6,4.23,11.07,9.45,10.92,10.37-.31,10.14-9.29,4.53-15.63s-14-9.86-14,4.71" transform="translate(-2.5 -30.11)"/><path class="cls-4" d="M44.9,92c0,6.77-4.23,12.43-9.46,12.26-10.38-.35-10.15-10.43-4.53-17.54,5.75-7.28,14-11.07,14,5.28" transform="translate(-2.5 -30.11)"/><path class="cls-5" d="M101.75,174.91c33.32,0,60.33,1.16,60.33,2.59s-27,2.59-60.33,2.59-60.33-1.16-60.33-2.59,27-2.59,60.33-2.59" transform="translate(-2.5 -30.11)"/><path class="cls-1" d="M75,178c14.16,0,16.85-9.23,26.21-9.3s13.42,9.3,27.08,9.3c22.07,0,36.44-47.4,36.44-73.34C164.7,71.4,136.52,49,101.75,49S38.8,71.4,38.8,104.64C38.8,144,55.6,178,75,178" transform="translate(-2.5 -30.11)"/><path class="cls-6" d="M159.68,96.6a56.6,56.6,0,0,1,.91,10.15c0,49.9-87.38,57.93-107.71,12.56,3.41,2,7.92,2.87,13.73,2.12a52.62,52.62,0,0,0,13.07-3.62,68.32,68.32,0,0,1,8.92-3,55.41,55.41,0,0,1,13.15-1.39,55.41,55.41,0,0,1,13.15,1.39,67.68,67.68,0,0,1,8.91,3,52.85,52.85,0,0,0,13.07,3.62c16.94,2.18,22.8-9.08,22.8-24.23Zm-55.22-46a56.1,56.1,0,0,1,47.09,25.58c-1.17-.22-2.48-.41-3.94-.61-5.84-.77-11.62-1.37-17.5-1.75-9.43-.61-18.92-.75-28.36-.75s-18.94.14-28.36.75c-5.88.38-11.67,1-17.5,1.75-.61.08-1.19.16-1.75.25C63.11,59.38,82.18,50.61,104.46,50.61Z" transform="translate(-2.5 -30.11)"/><path class="cls-7" d="M102.67,67.54c-11,2.25-14.37-8.33-.5-11.68,16.4-4,39.3,5.91,48,20.15l-8.4-1.14h0c-9.69-7.65-23.83-10.47-39.13-7.33" transform="translate(-2.5 -30.11)"/><path class="cls-3" d="M103.15,116.88c9.22,0,12.61-3.24,16.61.33s-3.59,15.37-16.69,15.37-20.47-11.67-16.7-15.37,7.56-.33,16.78-.33" transform="translate(-2.5 -30.11)"/><path class="cls-1" d="M111.9,128.57A17.09,17.09,0,0,1,94,128.44c.2-2.8,5.2-4.31,9-2.45,3.93-1.86,8.87-.28,9,2.58" transform="translate(-2.5 -30.11)"/><path class="cls-2" d="M103.14,117.94c6,0,9.36-1.3,12.09-1.3a.66.66,0,0,1,0,.14,3.67,3.67,0,0,1-3.53,3.81,3.35,3.35,0,0,1-1.74-.49,4,4,0,0,1-6.79.42,4,4,0,0,1-6.83-.49,3.25,3.25,0,0,1-1.84.56A3.67,3.67,0,0,1,91,116.78v-.18c2.73.05,6.13,1.34,12.16,1.34" transform="translate(-2.5 -30.11)"/><path class="cls-2" d="M56.22,78.05c10-1.32,21.06-2.48,45.53-2.48s35.55,1.16,45.53,2.48c8.39,1.11,9.91,1.76,9.91,9.1v10c0,14.38-5.17,23.67-20,21.76-13.44-1.74-16.35-8-35.45-8s-22,6.31-35.46,8c-14.81,1.91-20-7.38-20-21.76v-10c0-7.34,1.51-8,9.91-9.1" transform="translate(-2.5 -30.11)"/><path class="cls-8" d="M51.16,83.69a15.41,15.41,0,0,0-.29,3.46v10c0,4.69.59,11.71,4.35,15.09,2.79,2.52,7,2.6,10.49,2.14a46,46,0,0,0,11.4-3.18,74.73,74.73,0,0,1,9.83-3.32,62.51,62.51,0,0,1,14.81-1.58,62.51,62.51,0,0,1,14.81,1.58,75.23,75.23,0,0,1,9.83,3.32,45.76,45.76,0,0,0,11.4,3.18c3.52.46,7.7.38,10.49-2.14,3.76-3.38,4.34-10.4,4.34-15.09v-10a15.38,15.38,0,0,0-.28-3.46c-1-.52-4.72-1-5.66-1.11-15.08-2-29.71-2.45-44.93-2.45s-29.85.45-44.94,2.45c-.93.12-4.69.59-5.65,1.11" transform="translate(-2.5 -30.11)"/><path class="cls-9" d="M134.86,90.37a9.67,9.67,0,1,1-9.31,10,9.67,9.67,0,0,1,9.31-10" transform="translate(-2.5 -30.11)"/><path class="cls-10" d="M139.35,93.3a2.7,2.7,0,1,1-2.59,2.8,2.71,2.71,0,0,1,2.59-2.8" transform="translate(-2.5 -30.11)"/><path class="cls-9" d="M70.65,90.37a9.67,9.67,0,1,1-9.31,10,9.67,9.67,0,0,1,9.31-10" transform="translate(-2.5 -30.11)"/><path class="cls-7" d="M75.14,93.3a2.7,2.7,0,1,1-2.6,2.8,2.69,2.69,0,0,1,2.6-2.8" transform="translate(-2.5 -30.11)"/><path class="cls-11" d="M84.38,108.63c.84-.25,1.69-.49,2.56-.7,1.06-.26,2.13-.48,3.2-.67l8.4-27.12c-1.79,0-3.58,0-5.36,0Zm-17.47,5.63a48.35,48.35,0,0,0,10.2-3c.67-.27,1.33-.53,2-.78l9.34-30.19q-5.6.12-11.16.43Z" transform="translate(-2.5 -30.11)"/><path class="cls-12" d="M7.77,30.12h0a3.76,3.76,0,0,1,4,3.54l3.59,66.69a3.75,3.75,0,1,1-7.49.4L4.23,34.07a3.76,3.76,0,0,1,3.54-3.95" transform="translate(-2.5 -30.11)"/><rect class="cls-13" x="5.51" y="55.42" width="7.5" height="4.76" transform="translate(-5.6 -29.53) rotate(-3.08)"/><rect class="cls-13" x="4.74" y="40.99" width="7.5" height="4.76" transform="translate(-4.82 -29.6) rotate(-3.08)"/><path class="cls-3" d="M14.5,74.28l1.44,26.77c.11,1.91-1.76,3.58-4.15,3.7h0c-2.38.13-4.42-1.32-4.52-3.23C6.76,92,6.34,84.25,5.83,74.75a19,19,0,0,1,8.67-.47" transform="translate(-2.5 -30.11)"/><path class="cls-12" d="M198.33,30.63h0a3.77,3.77,0,0,0-4,3.54l-3.59,66.69a3.76,3.76,0,0,0,7.5.4l3.59-66.68a3.77,3.77,0,0,0-3.55-3.95" transform="translate(-2.5 -30.11)"/><rect class="cls-13" x="194.46" y="54.56" width="4.76" height="7.5" transform="translate(125.53 221.61) rotate(-86.92)"/><rect class="cls-13" x="195.24" y="40.12" width="4.76" height="7.5" transform="translate(140.68 208.74) rotate(-86.92)"/><path class="cls-3" d="M191.6,74.79l-1.44,26.77c-.1,1.91,1.77,3.58,4.15,3.7h0c2.39.13,4.43-1.32,4.53-3.23.51-9.5.93-17.27,1.44-26.77a19,19,0,0,0-8.68-.47" transform="translate(-2.5 -30.11)"/></svg>