<?xml version="1.0" encoding="iso-8859-1"?>
<!-- Generator: Adobe Illustrator 19.0.0, SVG Export Plug-In . SVG Version: 6.00 Build 0)  -->
<svg version="1.1" id="Layer_1" xmlns="http://www.w3.org/2000/svg" xmlns:xlink="http://www.w3.org/1999/xlink" x="0px" y="0px"
	 viewBox="0 0 512 512" style="enable-background:new 0 0 512 512;" xml:space="preserve">
<polygon points="307.64,168.792 344.072,131.64 344.072,221.288 378.064,221.288 378.064,131.64 414.496,168.792 438.752,145.12 
	361.072,65.92 283.384,145.12 "/>
<path style="fill:#D6D6D6;" d="M401.392,270.368H432c44,0,80,35.936,80,79.872v15.968c0,43.92-36,79.872-80,79.872H80
	c-44,0-80-35.936-80-79.872V350.24c0-40.96,31.424-74.592,71.328-78.992C70.544,265.728,70,260.128,70,254.4
	c0-65.616,53.28-118.8,118.992-118.8c50.464,0,93.488,31.424,110.8,75.68c0,0,26.672-12.24,60.016-0.448
	C401.264,225.504,401.392,270.368,401.392,270.368z"/>
<polygon style="fill:#E50914;" points="251.12,283.584 214.688,320.728 214.688,231.08 180.704,231.08 180.704,320.728 
	144.272,283.584 120.008,307.256 197.688,386.456 275.384,307.256 "/>
<g>
</g>
<g>
</g>
<g>
</g>
<g>
</g>
<g>
</g>
<g>
</g>
<g>
</g>
<g>
</g>
<g>
</g>
<g>
</g>
<g>
</g>
<g>
</g>
<g>
</g>
<g>
</g>
<g>
</g>
</svg>
